<mxfile host="app.diagrams.net" agent="Mozilla/5.0 (Windows NT 10.0; Win64; x64) AppleWebKit/537.36 (KHTML, like Gecko) Chrome/117.0.0.0 Safari/537.36" version="24.7.17">
  <diagram name="Page-1" id="_rsf4-vPJ9i9glf_0XxZ">
    <mxGraphModel grid="1" page="1" gridSize="10" guides="1" tooltips="1" connect="1" arrows="1" fold="1" pageScale="1" pageWidth="850" pageHeight="1100" math="0" shadow="0">
      <root>
        <mxCell id="0" />
        <mxCell id="1" parent="0" />
        <mxCell id="uS1HQqV0CesnG4Y-btNr-4" value="Type" style="ellipse;whiteSpace=wrap;html=1;" vertex="1" parent="1">
          <mxGeometry x="480" y="10" width="60" height="40" as="geometry" />
        </mxCell>
        <mxCell id="uS1HQqV0CesnG4Y-btNr-5" value="Make" style="ellipse;whiteSpace=wrap;html=1;" vertex="1" parent="1">
          <mxGeometry x="550" y="10" width="70" height="50" as="geometry" />
        </mxCell>
        <mxCell id="uS1HQqV0CesnG4Y-btNr-6" value="Model" style="ellipse;whiteSpace=wrap;html=1;" vertex="1" parent="1">
          <mxGeometry x="620" y="10" width="70" height="50" as="geometry" />
        </mxCell>
        <mxCell id="uS1HQqV0CesnG4Y-btNr-7" value="Year" style="ellipse;whiteSpace=wrap;html=1;" vertex="1" parent="1">
          <mxGeometry x="660" y="60" width="60" height="40" as="geometry" />
        </mxCell>
        <mxCell id="uS1HQqV0CesnG4Y-btNr-8" value="License Plate" style="ellipse;whiteSpace=wrap;html=1;" vertex="1" parent="1">
          <mxGeometry x="670" y="105" width="80" height="50" as="geometry" />
        </mxCell>
        <mxCell id="uS1HQqV0CesnG4Y-btNr-9" value="&lt;u&gt;VIM&lt;/u&gt;" style="ellipse;whiteSpace=wrap;html=1;" vertex="1" parent="1">
          <mxGeometry x="645" y="170" width="90" height="50" as="geometry" />
        </mxCell>
        <mxCell id="uS1HQqV0CesnG4Y-btNr-16" value="" style="endArrow=none;html=1;rounded=0;entryX=0.5;entryY=1;entryDx=0;entryDy=0;exitX=0.5;exitY=0;exitDx=0;exitDy=0;" edge="1" parent="1" target="uS1HQqV0CesnG4Y-btNr-4" source="c3-sLRQthnTtHmLo3_QN-66">
          <mxGeometry width="50" height="50" relative="1" as="geometry">
            <mxPoint x="530" y="100" as="sourcePoint" />
            <mxPoint x="490" y="80" as="targetPoint" />
          </mxGeometry>
        </mxCell>
        <mxCell id="uS1HQqV0CesnG4Y-btNr-17" value="" style="endArrow=none;html=1;rounded=0;entryX=0.5;entryY=1;entryDx=0;entryDy=0;exitX=1;exitY=0;exitDx=0;exitDy=0;" edge="1" parent="1" target="uS1HQqV0CesnG4Y-btNr-5">
          <mxGeometry width="50" height="50" relative="1" as="geometry">
            <mxPoint x="572.4264068711927" y="111.71572875253821" as="sourcePoint" />
            <mxPoint x="590" y="70" as="targetPoint" />
          </mxGeometry>
        </mxCell>
        <mxCell id="uS1HQqV0CesnG4Y-btNr-18" value="" style="endArrow=none;html=1;rounded=0;entryX=0;entryY=1;entryDx=0;entryDy=0;exitX=1;exitY=0.5;exitDx=0;exitDy=0;" edge="1" parent="1" target="uS1HQqV0CesnG4Y-btNr-6">
          <mxGeometry width="50" height="50" relative="1" as="geometry">
            <mxPoint x="590" y="140" as="sourcePoint" />
            <mxPoint x="650" y="130" as="targetPoint" />
          </mxGeometry>
        </mxCell>
        <mxCell id="uS1HQqV0CesnG4Y-btNr-19" value="" style="endArrow=none;html=1;rounded=0;entryX=0;entryY=0.5;entryDx=0;entryDy=0;exitX=1;exitY=0.5;exitDx=0;exitDy=0;" edge="1" parent="1" target="uS1HQqV0CesnG4Y-btNr-7">
          <mxGeometry width="50" height="50" relative="1" as="geometry">
            <mxPoint x="590" y="140" as="sourcePoint" />
            <mxPoint x="650" y="140" as="targetPoint" />
          </mxGeometry>
        </mxCell>
        <mxCell id="uS1HQqV0CesnG4Y-btNr-20" value="" style="endArrow=none;html=1;rounded=0;entryX=0;entryY=0.5;entryDx=0;entryDy=0;exitX=1;exitY=0.5;exitDx=0;exitDy=0;" edge="1" parent="1" target="uS1HQqV0CesnG4Y-btNr-8">
          <mxGeometry width="50" height="50" relative="1" as="geometry">
            <mxPoint x="590" y="140" as="sourcePoint" />
            <mxPoint x="620" y="190" as="targetPoint" />
          </mxGeometry>
        </mxCell>
        <mxCell id="uS1HQqV0CesnG4Y-btNr-21" value="" style="endArrow=none;html=1;rounded=0;entryX=0;entryY=0;entryDx=0;entryDy=0;exitX=1;exitY=1;exitDx=0;exitDy=0;" edge="1" parent="1" target="uS1HQqV0CesnG4Y-btNr-9" source="c3-sLRQthnTtHmLo3_QN-66">
          <mxGeometry width="50" height="50" relative="1" as="geometry">
            <mxPoint x="572.4264068711927" y="168.2842712474618" as="sourcePoint" />
            <mxPoint x="535" y="220" as="targetPoint" />
          </mxGeometry>
        </mxCell>
        <mxCell id="c3-sLRQthnTtHmLo3_QN-2" value="Condition" style="ellipse;whiteSpace=wrap;html=1;" vertex="1" parent="1">
          <mxGeometry x="560" y="270" width="80" height="50" as="geometry" />
        </mxCell>
        <mxCell id="c3-sLRQthnTtHmLo3_QN-3" value="MPG" style="ellipse;whiteSpace=wrap;html=1;" vertex="1" parent="1">
          <mxGeometry x="655" y="220" width="70" height="40" as="geometry" />
        </mxCell>
        <mxCell id="c3-sLRQthnTtHmLo3_QN-4" value="miles" style="ellipse;whiteSpace=wrap;html=1;" vertex="1" parent="1">
          <mxGeometry x="640" y="270" width="70" height="40" as="geometry" />
        </mxCell>
        <mxCell id="c3-sLRQthnTtHmLo3_QN-5" value="Status" style="ellipse;whiteSpace=wrap;html=1;" vertex="1" parent="1">
          <mxGeometry x="410" y="10" width="60" height="40" as="geometry" />
        </mxCell>
        <mxCell id="c3-sLRQthnTtHmLo3_QN-7" value="" style="endArrow=none;html=1;rounded=0;entryX=0;entryY=0.5;entryDx=0;entryDy=0;exitX=0.917;exitY=0.967;exitDx=0;exitDy=0;exitPerimeter=0;" edge="1" parent="1" target="c3-sLRQthnTtHmLo3_QN-3" source="c3-sLRQthnTtHmLo3_QN-66">
          <mxGeometry width="50" height="50" relative="1" as="geometry">
            <mxPoint x="572.4264068711927" y="168.2842712474618" as="sourcePoint" />
            <mxPoint x="450" y="160" as="targetPoint" />
          </mxGeometry>
        </mxCell>
        <mxCell id="c3-sLRQthnTtHmLo3_QN-8" value="" style="endArrow=none;html=1;rounded=0;entryX=0;entryY=0;entryDx=0;entryDy=0;exitX=0.825;exitY=0.95;exitDx=0;exitDy=0;exitPerimeter=0;" edge="1" parent="1" target="c3-sLRQthnTtHmLo3_QN-4" source="c3-sLRQthnTtHmLo3_QN-66">
          <mxGeometry width="50" height="50" relative="1" as="geometry">
            <mxPoint x="572.4264068711927" y="168.2842712474618" as="sourcePoint" />
            <mxPoint x="665" y="250" as="targetPoint" />
          </mxGeometry>
        </mxCell>
        <mxCell id="c3-sLRQthnTtHmLo3_QN-9" value="" style="endArrow=none;html=1;rounded=0;entryX=0.5;entryY=0;entryDx=0;entryDy=0;exitX=0.75;exitY=1;exitDx=0;exitDy=0;" edge="1" parent="1" target="c3-sLRQthnTtHmLo3_QN-2" source="c3-sLRQthnTtHmLo3_QN-66">
          <mxGeometry width="50" height="50" relative="1" as="geometry">
            <mxPoint x="572.4264068711927" y="168.2842712474618" as="sourcePoint" />
            <mxPoint x="675" y="260" as="targetPoint" />
          </mxGeometry>
        </mxCell>
        <mxCell id="c3-sLRQthnTtHmLo3_QN-10" value="&lt;u&gt;custID&lt;/u&gt;" style="ellipse;whiteSpace=wrap;html=1;" vertex="1" parent="1">
          <mxGeometry x="-390" y="90" width="70" height="46.67" as="geometry" />
        </mxCell>
        <mxCell id="c3-sLRQthnTtHmLo3_QN-11" value="FirstName" style="ellipse;whiteSpace=wrap;html=1;" vertex="1" parent="1">
          <mxGeometry x="-420" y="155" width="70" height="46.67" as="geometry" />
        </mxCell>
        <mxCell id="c3-sLRQthnTtHmLo3_QN-12" value="LastName" style="ellipse;whiteSpace=wrap;html=1;" vertex="1" parent="1">
          <mxGeometry x="-425" y="220" width="80" height="40" as="geometry" />
        </mxCell>
        <mxCell id="c3-sLRQthnTtHmLo3_QN-13" value="hashed,salted password" style="ellipse;whiteSpace=wrap;html=1;" vertex="1" parent="1">
          <mxGeometry x="-430" y="290" width="90" height="60" as="geometry" />
        </mxCell>
        <mxCell id="c3-sLRQthnTtHmLo3_QN-14" value="Email" style="ellipse;whiteSpace=wrap;html=1;" vertex="1" parent="1">
          <mxGeometry x="-330" y="293.33000000000004" width="70" height="46.67" as="geometry" />
        </mxCell>
        <mxCell id="c3-sLRQthnTtHmLo3_QN-15" value="Phone Number" style="ellipse;whiteSpace=wrap;html=1;" vertex="1" parent="1">
          <mxGeometry x="-320" y="360" width="90" height="60" as="geometry" />
        </mxCell>
        <mxCell id="c3-sLRQthnTtHmLo3_QN-16" value="" style="endArrow=none;html=1;rounded=0;entryX=1;entryY=1;entryDx=0;entryDy=0;exitX=0.4;exitY=0.05;exitDx=0;exitDy=0;exitPerimeter=0;" edge="1" parent="1" target="c3-sLRQthnTtHmLo3_QN-5" source="c3-sLRQthnTtHmLo3_QN-66">
          <mxGeometry width="50" height="50" relative="1" as="geometry">
            <mxPoint x="530" y="100" as="sourcePoint" />
            <mxPoint x="520" y="60" as="targetPoint" />
          </mxGeometry>
        </mxCell>
        <mxCell id="c3-sLRQthnTtHmLo3_QN-19" value="" style="endArrow=none;html=1;rounded=0;exitX=1;exitY=0.5;exitDx=0;exitDy=0;entryX=0;entryY=0.5;entryDx=0;entryDy=0;" edge="1" parent="1" source="c3-sLRQthnTtHmLo3_QN-10">
          <mxGeometry width="50" height="50" relative="1" as="geometry">
            <mxPoint x="20" y="180" as="sourcePoint" />
            <mxPoint x="-230.00000000000819" y="170" as="targetPoint" />
          </mxGeometry>
        </mxCell>
        <mxCell id="c3-sLRQthnTtHmLo3_QN-20" value="" style="endArrow=none;html=1;rounded=0;entryX=0;entryY=1;entryDx=0;entryDy=0;exitX=1;exitY=0;exitDx=0;exitDy=0;" edge="1" parent="1" source="c3-sLRQthnTtHmLo3_QN-11">
          <mxGeometry width="50" height="50" relative="1" as="geometry">
            <mxPoint x="-260" y="250" as="sourcePoint" />
            <mxPoint x="-212.42640687120456" y="198.28427124746963" as="targetPoint" />
          </mxGeometry>
        </mxCell>
        <mxCell id="c3-sLRQthnTtHmLo3_QN-21" value="" style="endArrow=none;html=1;rounded=0;exitX=1;exitY=0;exitDx=0;exitDy=0;entryX=0.5;entryY=1;entryDx=0;entryDy=0;" edge="1" parent="1" source="c3-sLRQthnTtHmLo3_QN-12">
          <mxGeometry width="50" height="50" relative="1" as="geometry">
            <mxPoint x="-200" y="260" as="sourcePoint" />
            <mxPoint x="-170" y="210" as="targetPoint" />
          </mxGeometry>
        </mxCell>
        <mxCell id="c3-sLRQthnTtHmLo3_QN-22" value="" style="endArrow=none;html=1;rounded=0;exitX=0.5;exitY=0;exitDx=0;exitDy=0;entryX=0.5;entryY=1;entryDx=0;entryDy=0;" edge="1" parent="1" source="c3-sLRQthnTtHmLo3_QN-13">
          <mxGeometry width="50" height="50" relative="1" as="geometry">
            <mxPoint x="20" y="180" as="sourcePoint" />
            <mxPoint x="-170" y="210" as="targetPoint" />
          </mxGeometry>
        </mxCell>
        <mxCell id="c3-sLRQthnTtHmLo3_QN-23" value="" style="endArrow=none;html=1;rounded=0;exitX=0.5;exitY=0;exitDx=0;exitDy=0;entryX=0.692;entryY=0.975;entryDx=0;entryDy=0;entryPerimeter=0;" edge="1" parent="1" source="c3-sLRQthnTtHmLo3_QN-14">
          <mxGeometry width="50" height="50" relative="1" as="geometry">
            <mxPoint x="20" y="180" as="sourcePoint" />
            <mxPoint x="-146.95999999999958" y="208" as="targetPoint" />
          </mxGeometry>
        </mxCell>
        <mxCell id="c3-sLRQthnTtHmLo3_QN-24" value="" style="endArrow=none;html=1;rounded=0;exitX=0.5;exitY=0;exitDx=0;exitDy=0;entryX=1;entryY=1;entryDx=0;entryDy=0;" edge="1" parent="1" source="c3-sLRQthnTtHmLo3_QN-15">
          <mxGeometry width="50" height="50" relative="1" as="geometry">
            <mxPoint x="20" y="180" as="sourcePoint" />
            <mxPoint x="-127.57359312879498" y="198.2842712474701" as="targetPoint" />
          </mxGeometry>
        </mxCell>
        <mxCell id="c3-sLRQthnTtHmLo3_QN-26" value="&lt;u&gt;empID&lt;/u&gt;" style="ellipse;whiteSpace=wrap;html=1;" vertex="1" parent="1">
          <mxGeometry y="543.3299999999999" width="70" height="46.67" as="geometry" />
        </mxCell>
        <mxCell id="c3-sLRQthnTtHmLo3_QN-27" value="FirstName" style="ellipse;whiteSpace=wrap;html=1;" vertex="1" parent="1">
          <mxGeometry y="603.33" width="70" height="46.67" as="geometry" />
        </mxCell>
        <mxCell id="c3-sLRQthnTtHmLo3_QN-28" value="LastName" style="ellipse;whiteSpace=wrap;html=1;" vertex="1" parent="1">
          <mxGeometry x="10" y="650" width="80" height="40" as="geometry" />
        </mxCell>
        <mxCell id="c3-sLRQthnTtHmLo3_QN-29" value="hashed,salted password" style="ellipse;whiteSpace=wrap;html=1;" vertex="1" parent="1">
          <mxGeometry x="90" y="670" width="90" height="60" as="geometry" />
        </mxCell>
        <mxCell id="c3-sLRQthnTtHmLo3_QN-30" value="Email" style="ellipse;whiteSpace=wrap;html=1;" vertex="1" parent="1">
          <mxGeometry x="190" y="683.33" width="70" height="46.67" as="geometry" />
        </mxCell>
        <mxCell id="c3-sLRQthnTtHmLo3_QN-31" value="Phone Number" style="ellipse;whiteSpace=wrap;html=1;" vertex="1" parent="1">
          <mxGeometry x="280" y="676.66" width="90" height="60" as="geometry" />
        </mxCell>
        <mxCell id="c3-sLRQthnTtHmLo3_QN-32" value="" style="endArrow=none;html=1;rounded=0;exitX=1;exitY=0.5;exitDx=0;exitDy=0;entryX=0;entryY=0.25;entryDx=0;entryDy=0;" edge="1" parent="1" source="c3-sLRQthnTtHmLo3_QN-26" target="c3-sLRQthnTtHmLo3_QN-65">
          <mxGeometry width="50" height="50" relative="1" as="geometry">
            <mxPoint x="400" y="550" as="sourcePoint" />
            <mxPoint x="150" y="540" as="targetPoint" />
          </mxGeometry>
        </mxCell>
        <mxCell id="c3-sLRQthnTtHmLo3_QN-33" value="" style="endArrow=none;html=1;rounded=0;entryX=0.063;entryY=0.833;entryDx=0;entryDy=0;exitX=1;exitY=0;exitDx=0;exitDy=0;entryPerimeter=0;" edge="1" parent="1" source="c3-sLRQthnTtHmLo3_QN-27" target="c3-sLRQthnTtHmLo3_QN-65">
          <mxGeometry width="50" height="50" relative="1" as="geometry">
            <mxPoint x="120" y="620" as="sourcePoint" />
            <mxPoint x="167.57359312880726" y="568.2842712474617" as="targetPoint" />
          </mxGeometry>
        </mxCell>
        <mxCell id="c3-sLRQthnTtHmLo3_QN-34" value="" style="endArrow=none;html=1;rounded=0;exitX=1;exitY=0;exitDx=0;exitDy=0;entryX=0.25;entryY=1;entryDx=0;entryDy=0;" edge="1" parent="1" source="c3-sLRQthnTtHmLo3_QN-28" target="c3-sLRQthnTtHmLo3_QN-65">
          <mxGeometry width="50" height="50" relative="1" as="geometry">
            <mxPoint x="180" y="630" as="sourcePoint" />
            <mxPoint x="210" y="580" as="targetPoint" />
          </mxGeometry>
        </mxCell>
        <mxCell id="c3-sLRQthnTtHmLo3_QN-35" value="" style="endArrow=none;html=1;rounded=0;exitX=0.5;exitY=0;exitDx=0;exitDy=0;entryX=0.5;entryY=1;entryDx=0;entryDy=0;" edge="1" parent="1" source="c3-sLRQthnTtHmLo3_QN-29" target="c3-sLRQthnTtHmLo3_QN-65">
          <mxGeometry width="50" height="50" relative="1" as="geometry">
            <mxPoint x="400" y="550" as="sourcePoint" />
            <mxPoint x="210" y="580" as="targetPoint" />
          </mxGeometry>
        </mxCell>
        <mxCell id="c3-sLRQthnTtHmLo3_QN-36" value="" style="endArrow=none;html=1;rounded=0;exitX=0.5;exitY=0;exitDx=0;exitDy=0;" edge="1" parent="1" source="c3-sLRQthnTtHmLo3_QN-30" target="c3-sLRQthnTtHmLo3_QN-65">
          <mxGeometry width="50" height="50" relative="1" as="geometry">
            <mxPoint x="400" y="550" as="sourcePoint" />
            <mxPoint x="233.04000000000042" y="578" as="targetPoint" />
          </mxGeometry>
        </mxCell>
        <mxCell id="c3-sLRQthnTtHmLo3_QN-37" value="" style="endArrow=none;html=1;rounded=0;exitX=0.5;exitY=0;exitDx=0;exitDy=0;entryX=0.65;entryY=0.922;entryDx=0;entryDy=0;entryPerimeter=0;" edge="1" parent="1" source="c3-sLRQthnTtHmLo3_QN-31" target="c3-sLRQthnTtHmLo3_QN-65">
          <mxGeometry width="50" height="50" relative="1" as="geometry">
            <mxPoint x="400" y="550" as="sourcePoint" />
            <mxPoint x="252.4264068711932" y="568.2842712474621" as="targetPoint" />
          </mxGeometry>
        </mxCell>
        <mxCell id="c3-sLRQthnTtHmLo3_QN-53" value="Position" style="ellipse;whiteSpace=wrap;html=1;" vertex="1" parent="1">
          <mxGeometry x="380" y="660" width="70" height="50" as="geometry" />
        </mxCell>
        <mxCell id="c3-sLRQthnTtHmLo3_QN-54" value="" style="endArrow=none;html=1;rounded=0;exitX=1;exitY=1;exitDx=0;exitDy=0;entryX=0;entryY=0;entryDx=0;entryDy=0;" edge="1" parent="1" target="c3-sLRQthnTtHmLo3_QN-53">
          <mxGeometry width="50" height="50" relative="1" as="geometry">
            <mxPoint x="252.4264068711932" y="568.2842712474621" as="sourcePoint" />
            <mxPoint x="270" y="320" as="targetPoint" />
          </mxGeometry>
        </mxCell>
        <mxCell id="c3-sLRQthnTtHmLo3_QN-55" value="Works On" style="rhombus;whiteSpace=wrap;html=1;" vertex="1" parent="1">
          <mxGeometry x="370" y="340" width="80" height="80" as="geometry" />
        </mxCell>
        <mxCell id="c3-sLRQthnTtHmLo3_QN-56" value="Rents" style="rhombus;whiteSpace=wrap;html=1;" vertex="1" parent="1">
          <mxGeometry x="110" y="25" width="80" height="80" as="geometry" />
        </mxCell>
        <mxCell id="c3-sLRQthnTtHmLo3_QN-57" value="Manages" style="rhombus;whiteSpace=wrap;html=1;" vertex="1" parent="1">
          <mxGeometry x="440" y="530" width="80" height="80" as="geometry" />
        </mxCell>
        <mxCell id="c3-sLRQthnTtHmLo3_QN-58" value="" style="endArrow=none;html=1;rounded=0;exitX=1;exitY=0.25;exitDx=0;exitDy=0;entryX=0.5;entryY=0;entryDx=0;entryDy=0;" edge="1" parent="1" source="c3-sLRQthnTtHmLo3_QN-65" target="c3-sLRQthnTtHmLo3_QN-57">
          <mxGeometry width="50" height="50" relative="1" as="geometry">
            <mxPoint x="252.4264068711932" y="511.71572875253787" as="sourcePoint" />
            <mxPoint x="270" y="320" as="targetPoint" />
          </mxGeometry>
        </mxCell>
        <mxCell id="c3-sLRQthnTtHmLo3_QN-91" value="1" style="edgeLabel;html=1;align=center;verticalAlign=middle;resizable=0;points=[];" connectable="0" vertex="1" parent="c3-sLRQthnTtHmLo3_QN-58">
          <mxGeometry x="-0.0695" y="2" relative="1" as="geometry">
            <mxPoint x="-3" y="-15" as="offset" />
          </mxGeometry>
        </mxCell>
        <mxCell id="c3-sLRQthnTtHmLo3_QN-59" value="" style="endArrow=none;html=1;rounded=0;exitX=1;exitY=1;exitDx=0;exitDy=0;entryX=0.5;entryY=1;entryDx=0;entryDy=0;" edge="1" parent="1" source="c3-sLRQthnTtHmLo3_QN-65" target="c3-sLRQthnTtHmLo3_QN-57">
          <mxGeometry width="50" height="50" relative="1" as="geometry">
            <mxPoint x="252.4264068711932" y="568.2842712474621" as="sourcePoint" />
            <mxPoint x="270" y="320" as="targetPoint" />
          </mxGeometry>
        </mxCell>
        <mxCell id="c3-sLRQthnTtHmLo3_QN-92" value="N" style="edgeLabel;html=1;align=center;verticalAlign=middle;resizable=0;points=[];" connectable="0" vertex="1" parent="c3-sLRQthnTtHmLo3_QN-59">
          <mxGeometry x="-0.0861" y="-1" relative="1" as="geometry">
            <mxPoint x="-1" y="-9" as="offset" />
          </mxGeometry>
        </mxCell>
        <mxCell id="c3-sLRQthnTtHmLo3_QN-60" value="" style="endArrow=none;html=1;rounded=0;entryX=0.5;entryY=1;entryDx=0;entryDy=0;exitX=1;exitY=0.5;exitDx=0;exitDy=0;" edge="1" parent="1" source="c3-sLRQthnTtHmLo3_QN-55" target="c3-sLRQthnTtHmLo3_QN-66">
          <mxGeometry width="50" height="50" relative="1" as="geometry">
            <mxPoint x="220" y="370" as="sourcePoint" />
            <mxPoint x="530" y="180" as="targetPoint" />
          </mxGeometry>
        </mxCell>
        <mxCell id="c3-sLRQthnTtHmLo3_QN-87" value="N" style="edgeLabel;html=1;align=center;verticalAlign=middle;resizable=0;points=[];" connectable="0" vertex="1" parent="c3-sLRQthnTtHmLo3_QN-60">
          <mxGeometry x="-0.2566" y="-2" relative="1" as="geometry">
            <mxPoint x="-12" y="-11" as="offset" />
          </mxGeometry>
        </mxCell>
        <mxCell id="c3-sLRQthnTtHmLo3_QN-61" value="" style="endArrow=none;html=1;rounded=0;exitX=0.844;exitY=0.089;exitDx=0;exitDy=0;entryX=0;entryY=0.5;entryDx=0;entryDy=0;exitPerimeter=0;" edge="1" parent="1" source="c3-sLRQthnTtHmLo3_QN-65" target="c3-sLRQthnTtHmLo3_QN-55">
          <mxGeometry width="50" height="50" relative="1" as="geometry">
            <mxPoint x="252.4264068711932" y="511.71572875253787" as="sourcePoint" />
            <mxPoint x="270" y="320" as="targetPoint" />
          </mxGeometry>
        </mxCell>
        <mxCell id="c3-sLRQthnTtHmLo3_QN-88" value="1" style="edgeLabel;html=1;align=center;verticalAlign=middle;resizable=0;points=[];" connectable="0" vertex="1" parent="c3-sLRQthnTtHmLo3_QN-61">
          <mxGeometry x="0.0151" y="2" relative="1" as="geometry">
            <mxPoint x="-5" y="-15" as="offset" />
          </mxGeometry>
        </mxCell>
        <mxCell id="c3-sLRQthnTtHmLo3_QN-62" value="" style="endArrow=none;html=1;rounded=0;entryX=0;entryY=0.5;entryDx=0;entryDy=0;exitX=1;exitY=0.5;exitDx=0;exitDy=0;" edge="1" parent="1" source="c3-sLRQthnTtHmLo3_QN-56" target="c3-sLRQthnTtHmLo3_QN-66">
          <mxGeometry width="50" height="50" relative="1" as="geometry">
            <mxPoint x="230" y="186.67" as="sourcePoint" />
            <mxPoint x="470" y="140" as="targetPoint" />
          </mxGeometry>
        </mxCell>
        <mxCell id="c3-sLRQthnTtHmLo3_QN-86" value="1" style="edgeLabel;html=1;align=center;verticalAlign=middle;resizable=0;points=[];" connectable="0" vertex="1" parent="c3-sLRQthnTtHmLo3_QN-62">
          <mxGeometry x="-0.0995" y="1" relative="1" as="geometry">
            <mxPoint x="4" y="-6" as="offset" />
          </mxGeometry>
        </mxCell>
        <mxCell id="c3-sLRQthnTtHmLo3_QN-63" value="" style="endArrow=none;html=1;rounded=0;exitX=1;exitY=0.5;exitDx=0;exitDy=0;entryX=0;entryY=0.5;entryDx=0;entryDy=0;" edge="1" parent="1" target="c3-sLRQthnTtHmLo3_QN-56">
          <mxGeometry width="50" height="50" relative="1" as="geometry">
            <mxPoint x="-109.9999999999909" y="170" as="sourcePoint" />
            <mxPoint x="270" y="320" as="targetPoint" />
          </mxGeometry>
        </mxCell>
        <mxCell id="c3-sLRQthnTtHmLo3_QN-64" value="Customer" style="rounded=0;whiteSpace=wrap;html=1;" vertex="1" parent="1">
          <mxGeometry x="-230" y="148.33" width="120" height="60" as="geometry" />
        </mxCell>
        <mxCell id="c3-sLRQthnTtHmLo3_QN-65" value="Employee" style="rounded=0;whiteSpace=wrap;html=1;" vertex="1" parent="1">
          <mxGeometry x="160" y="510" width="120" height="60" as="geometry" />
        </mxCell>
        <mxCell id="c3-sLRQthnTtHmLo3_QN-66" value="Vehicle" style="rounded=0;whiteSpace=wrap;html=1;" vertex="1" parent="1">
          <mxGeometry x="480" y="105" width="120" height="60" as="geometry" />
        </mxCell>
        <mxCell id="c3-sLRQthnTtHmLo3_QN-68" value="creates" style="rhombus;whiteSpace=wrap;html=1;" vertex="1" parent="1">
          <mxGeometry x="-30" y="170" width="80" height="80" as="geometry" />
        </mxCell>
        <mxCell id="c3-sLRQthnTtHmLo3_QN-69" value="Included" style="rhombus;whiteSpace=wrap;html=1;" vertex="1" parent="1">
          <mxGeometry x="320" y="170" width="80" height="80" as="geometry" />
        </mxCell>
        <mxCell id="c3-sLRQthnTtHmLo3_QN-71" value="" style="endArrow=none;html=1;rounded=0;entryX=0;entryY=0.5;entryDx=0;entryDy=0;exitX=1;exitY=0.5;exitDx=0;exitDy=0;shape=link;" edge="1" parent="1" source="c3-sLRQthnTtHmLo3_QN-68" target="c3-sLRQthnTtHmLo3_QN-75">
          <mxGeometry width="50" height="50" relative="1" as="geometry">
            <mxPoint x="25" y="270" as="sourcePoint" />
            <mxPoint x="110" y="230" as="targetPoint" />
          </mxGeometry>
        </mxCell>
        <mxCell id="c3-sLRQthnTtHmLo3_QN-83" value="N" style="edgeLabel;html=1;align=center;verticalAlign=middle;resizable=0;points=[];" connectable="0" vertex="1" parent="c3-sLRQthnTtHmLo3_QN-71">
          <mxGeometry x="-0.2372" y="1" relative="1" as="geometry">
            <mxPoint x="13" y="-8" as="offset" />
          </mxGeometry>
        </mxCell>
        <mxCell id="c3-sLRQthnTtHmLo3_QN-72" value="" style="endArrow=none;html=1;rounded=0;entryX=0;entryY=0.5;entryDx=0;entryDy=0;exitX=1;exitY=0.5;exitDx=0;exitDy=0;shape=link;" edge="1" parent="1" source="c3-sLRQthnTtHmLo3_QN-75" target="c3-sLRQthnTtHmLo3_QN-69">
          <mxGeometry width="50" height="50" relative="1" as="geometry">
            <mxPoint x="230" y="230" as="sourcePoint" />
            <mxPoint x="320" y="235" as="targetPoint" />
          </mxGeometry>
        </mxCell>
        <mxCell id="c3-sLRQthnTtHmLo3_QN-84" value="N" style="edgeLabel;html=1;align=center;verticalAlign=middle;resizable=0;points=[];" connectable="0" vertex="1" parent="c3-sLRQthnTtHmLo3_QN-72">
          <mxGeometry x="0.1007" relative="1" as="geometry">
            <mxPoint x="5" y="-11" as="offset" />
          </mxGeometry>
        </mxCell>
        <mxCell id="c3-sLRQthnTtHmLo3_QN-75" value="Rental Record" style="shape=ext;margin=3;double=1;whiteSpace=wrap;html=1;align=center;" vertex="1" parent="1">
          <mxGeometry x="120" y="210" width="100" height="40" as="geometry" />
        </mxCell>
        <mxCell id="c3-sLRQthnTtHmLo3_QN-77" value="" style="endArrow=none;html=1;rounded=0;exitX=1;exitY=0.5;exitDx=0;exitDy=0;entryX=0;entryY=0.5;entryDx=0;entryDy=0;" edge="1" parent="1" source="c3-sLRQthnTtHmLo3_QN-64" target="c3-sLRQthnTtHmLo3_QN-68">
          <mxGeometry relative="1" as="geometry">
            <mxPoint x="-110" y="239.52" as="sourcePoint" />
            <mxPoint x="50" y="239.52" as="targetPoint" />
          </mxGeometry>
        </mxCell>
        <mxCell id="c3-sLRQthnTtHmLo3_QN-78" value="1" style="resizable=0;html=1;whiteSpace=wrap;align=right;verticalAlign=bottom;" connectable="0" vertex="1" parent="c3-sLRQthnTtHmLo3_QN-77">
          <mxGeometry x="1" relative="1" as="geometry" />
        </mxCell>
        <mxCell id="c3-sLRQthnTtHmLo3_QN-79" value="" style="endArrow=none;html=1;rounded=0;exitX=1;exitY=0.5;exitDx=0;exitDy=0;entryX=0;entryY=1;entryDx=0;entryDy=0;" edge="1" parent="1" source="c3-sLRQthnTtHmLo3_QN-69" target="c3-sLRQthnTtHmLo3_QN-66">
          <mxGeometry relative="1" as="geometry">
            <mxPoint x="310" y="460" as="sourcePoint" />
            <mxPoint x="470" y="460" as="targetPoint" />
          </mxGeometry>
        </mxCell>
        <mxCell id="c3-sLRQthnTtHmLo3_QN-80" value="1" style="resizable=0;html=1;whiteSpace=wrap;align=right;verticalAlign=bottom;" connectable="0" vertex="1" parent="c3-sLRQthnTtHmLo3_QN-79">
          <mxGeometry x="1" relative="1" as="geometry">
            <mxPoint x="-20" y="13" as="offset" />
          </mxGeometry>
        </mxCell>
        <mxCell id="c3-sLRQthnTtHmLo3_QN-85" value="1" style="text;html=1;align=center;verticalAlign=middle;resizable=0;points=[];autosize=1;strokeColor=none;fillColor=none;" vertex="1" parent="1">
          <mxGeometry x="-10" y="90" width="30" height="30" as="geometry" />
        </mxCell>
        <mxCell id="c3-sLRQthnTtHmLo3_QN-89" value="Total Rentals" style="ellipse;whiteSpace=wrap;html=1;align=center;dashed=1;" vertex="1" parent="1">
          <mxGeometry x="-210" y="360" width="100" height="40" as="geometry" />
        </mxCell>
        <mxCell id="c3-sLRQthnTtHmLo3_QN-90" value="" style="endArrow=none;html=1;rounded=0;exitX=0.75;exitY=1;exitDx=0;exitDy=0;entryX=0.5;entryY=0;entryDx=0;entryDy=0;" edge="1" parent="1" source="c3-sLRQthnTtHmLo3_QN-64" target="c3-sLRQthnTtHmLo3_QN-89">
          <mxGeometry relative="1" as="geometry">
            <mxPoint x="310" y="460" as="sourcePoint" />
            <mxPoint x="470" y="460" as="targetPoint" />
          </mxGeometry>
        </mxCell>
        <mxCell id="rAYBrAwZZ4HW32WgyV3a-1" value="Start Date" style="ellipse;whiteSpace=wrap;html=1;" vertex="1" parent="1">
          <mxGeometry x="15" y="250" width="70" height="30" as="geometry" />
        </mxCell>
        <mxCell id="rAYBrAwZZ4HW32WgyV3a-2" value="End Date" style="ellipse;whiteSpace=wrap;html=1;" vertex="1" parent="1">
          <mxGeometry x="40" y="290" width="70" height="30" as="geometry" />
        </mxCell>
        <mxCell id="rAYBrAwZZ4HW32WgyV3a-3" value="&lt;u&gt;RecordID&lt;/u&gt;" style="ellipse;whiteSpace=wrap;html=1;" vertex="1" parent="1">
          <mxGeometry x="90" y="323.33" width="70" height="30" as="geometry" />
        </mxCell>
        <mxCell id="rAYBrAwZZ4HW32WgyV3a-4" value="Miles" style="ellipse;whiteSpace=wrap;html=1;" vertex="1" parent="1">
          <mxGeometry x="160" y="340" width="75" height="33.33" as="geometry" />
        </mxCell>
        <mxCell id="rAYBrAwZZ4HW32WgyV3a-5" value="Vehicle Initial Condition" style="ellipse;whiteSpace=wrap;html=1;" vertex="1" parent="1">
          <mxGeometry x="235" y="303.33" width="90" height="50" as="geometry" />
        </mxCell>
        <mxCell id="rAYBrAwZZ4HW32WgyV3a-6" value="Returned Condition" style="ellipse;whiteSpace=wrap;html=1;" vertex="1" parent="1">
          <mxGeometry x="300" y="260" width="90" height="50" as="geometry" />
        </mxCell>
        <mxCell id="rAYBrAwZZ4HW32WgyV3a-7" value="" style="endArrow=none;html=1;rounded=0;exitX=0;exitY=1;exitDx=0;exitDy=0;entryX=1;entryY=0.5;entryDx=0;entryDy=0;" edge="1" parent="1" source="c3-sLRQthnTtHmLo3_QN-75" target="rAYBrAwZZ4HW32WgyV3a-1">
          <mxGeometry width="50" height="50" relative="1" as="geometry">
            <mxPoint x="230" y="300" as="sourcePoint" />
            <mxPoint x="90" y="260" as="targetPoint" />
          </mxGeometry>
        </mxCell>
        <mxCell id="rAYBrAwZZ4HW32WgyV3a-8" value="" style="endArrow=none;html=1;rounded=0;exitX=0.145;exitY=1.078;exitDx=0;exitDy=0;entryX=1;entryY=0;entryDx=0;entryDy=0;exitPerimeter=0;" edge="1" parent="1" source="c3-sLRQthnTtHmLo3_QN-75" target="rAYBrAwZZ4HW32WgyV3a-2">
          <mxGeometry width="50" height="50" relative="1" as="geometry">
            <mxPoint x="130" y="260" as="sourcePoint" />
            <mxPoint x="95" y="275" as="targetPoint" />
          </mxGeometry>
        </mxCell>
        <mxCell id="rAYBrAwZZ4HW32WgyV3a-9" value="" style="endArrow=none;html=1;rounded=0;exitX=0.393;exitY=1.009;exitDx=0;exitDy=0;entryX=0.576;entryY=0.028;entryDx=0;entryDy=0;entryPerimeter=0;exitPerimeter=0;" edge="1" parent="1" source="c3-sLRQthnTtHmLo3_QN-75" target="rAYBrAwZZ4HW32WgyV3a-3">
          <mxGeometry width="50" height="50" relative="1" as="geometry">
            <mxPoint x="145" y="263" as="sourcePoint" />
            <mxPoint x="110" y="305" as="targetPoint" />
          </mxGeometry>
        </mxCell>
        <mxCell id="rAYBrAwZZ4HW32WgyV3a-10" value="" style="endArrow=none;html=1;rounded=0;exitX=0.552;exitY=0.992;exitDx=0;exitDy=0;entryX=0.5;entryY=0;entryDx=0;entryDy=0;exitPerimeter=0;" edge="1" parent="1" source="c3-sLRQthnTtHmLo3_QN-75" target="rAYBrAwZZ4HW32WgyV3a-4">
          <mxGeometry width="50" height="50" relative="1" as="geometry">
            <mxPoint x="180" y="260" as="sourcePoint" />
            <mxPoint x="140" y="334" as="targetPoint" />
          </mxGeometry>
        </mxCell>
        <mxCell id="rAYBrAwZZ4HW32WgyV3a-11" value="" style="endArrow=none;html=1;rounded=0;exitX=0;exitY=0;exitDx=0;exitDy=0;entryX=0.75;entryY=1;entryDx=0;entryDy=0;" edge="1" parent="1" source="rAYBrAwZZ4HW32WgyV3a-5" target="c3-sLRQthnTtHmLo3_QN-75">
          <mxGeometry width="50" height="50" relative="1" as="geometry">
            <mxPoint x="230" y="300" as="sourcePoint" />
            <mxPoint x="280" y="250" as="targetPoint" />
          </mxGeometry>
        </mxCell>
        <mxCell id="rAYBrAwZZ4HW32WgyV3a-12" value="" style="endArrow=none;html=1;rounded=0;entryX=0.008;entryY=0.332;entryDx=0;entryDy=0;entryPerimeter=0;exitX=0.993;exitY=0.872;exitDx=0;exitDy=0;exitPerimeter=0;" edge="1" parent="1" source="c3-sLRQthnTtHmLo3_QN-75" target="rAYBrAwZZ4HW32WgyV3a-6">
          <mxGeometry width="50" height="50" relative="1" as="geometry">
            <mxPoint x="230" y="300" as="sourcePoint" />
            <mxPoint x="280" y="250" as="targetPoint" />
          </mxGeometry>
        </mxCell>
      </root>
    </mxGraphModel>
  </diagram>
</mxfile>
